<?xml version="1.0" encoding="UTF-8"?>
<svg id="Layer_2" data-name="Layer 2" xmlns="http://www.w3.org/2000/svg" viewBox="0 0 2313.37 936.34">
  <defs>
    <style>
      .cls-1 {
        fill: #4a494a;
      }
    </style>
  </defs>
  <g id="Layer_1-2" data-name="Layer 1">
    <g>
      <path class="cls-1" d="M0,747.83l52.44-34.96,13.73,2.5c58.68,112.36,129.84,158.55,230.96,158.55,114.86,0,196.01-79.9,196.01-174.78s-46.19-148.57-225.97-227.22C91.14,394.51,31.21,324.6,31.21,213.49,31.21,93.63,128.59,4.99,282.15,4.99c116.11,0,198.5,49.94,248.44,141.08l-49.94,33.71-13.73-2.5c-41.2-72.41-98.63-111.11-187.27-111.11-106.12,0-176.03,63.67-176.03,144.82s42.45,123.6,212.24,203.5c197.26,91.14,249.69,162.3,249.69,284.65,0,132.34-112.36,237.21-267.17,237.21-132.34,0-227.22-52.44-298.38-188.52Z"/>
      <path class="cls-1" d="M604.24,747.83l52.44-34.96,13.73,2.5c58.68,112.36,129.84,158.55,230.96,158.55,114.86,0,196.01-79.9,196.01-174.78s-46.19-148.57-225.97-227.22c-176.03-77.4-235.96-147.32-235.96-258.43,0-119.85,97.38-208.49,250.94-208.49,116.11,0,198.5,49.94,248.44,141.08l-49.94,33.71-13.73-2.5c-41.2-72.41-98.63-111.11-187.27-111.11-106.12,0-176.03,63.67-176.03,144.82s42.45,123.6,212.24,203.5c197.26,91.14,249.69,162.3,249.69,284.65,0,132.34-112.36,237.21-267.17,237.21-132.34,0-227.22-52.44-298.38-188.52Z"/>
      <path class="cls-1" d="M1172.27,912.62v-14.98l235.96-240.95c163.55-167.29,247.19-288.39,247.19-409.5,0-106.12-71.16-179.78-184.77-178.53-121.1,0-197.26,69.91-222.23,198.5l-14.98,8.74-52.44-8.74C1207.22,94.88,1317.09,4.99,1475.64,4.99c147.32,0,250.94,96.13,250.94,238.46,0,126.09-74.91,250.94-218.48,400.75l-97.38,101.12c-33.71,34.96-64.92,64.92-102.37,102.37l1.25,1.25c48.69-1.25,88.64-1.25,143.57-1.25h263.42v64.92h-544.33Z"/>
      <path class="cls-1" d="M1745.32,644.2c0-103.62,47.44-187.27,147.32-329.59L2111.12,0l53.68,31.21,1.25,11.24-173.54,244.7c-33.71,44.94-69.91,89.89-117.35,148.57l2.5,1.25c43.7-41.2,108.62-68.67,173.54-68.67,153.56,0,262.18,112.36,262.18,277.16,0,174.78-117.36,290.89-288.39,290.89s-279.65-112.36-279.65-292.14ZM2242.2,649.2c0-133.58-84.9-220.98-209.74-220.98s-215.98,91.14-215.98,223.47,86.14,222.23,212.24,222.23,213.49-92.39,213.49-224.72Z"/>
    </g>
  </g>
</svg>